<svg width="2056" height="520" viewBox="0 0 2056 520" fill="none" xmlns="http://www.w3.org/2000/svg">
    <g clip-path="url(#clip0_24_3)" filter="url(#filter0_d_24_3)">
        <rect x="1374" y="1" width="680" height="512" fill="#2C8EBB"/>
        <path d="M1851.86 333.082C1850.3 319.328 1839.87 309.835 1826.49 310.029C1806.5 310.32 1789.73 321.846 1778.61 329.498C1774.26 332.501 1770.53 334.729 1767.31 336.375C1768.01 325.139 1767.4 310.417 1762.18 294.241C1755.84 274.869 1747.32 262.955 1741.24 256.078C1748.28 244.648 1757.93 227.988 1762.44 202.223C1766.36 180.236 1765.14 146.044 1756.19 126.866C1754.36 122.991 1751.32 120.182 1747.5 119.02C1745.93 118.536 1742.98 117.567 1737.16 119.407C1728.38 99.1634 1725.34 97.0325 1722.99 95.289C1718.13 91.802 1712.39 91.0271 1707.01 93.2549C1699.79 96.1607 1693.62 103.91 1687.8 117.664C1686.93 119.698 1686.15 121.635 1685.45 123.572C1674.42 124.444 1657.04 128.9 1642.35 146.625C1640.53 148.853 1636.97 150.5 1633.23 152.049H1633.32C1625.67 155.052 1622.19 162.026 1617.94 174.618C1612.03 192.247 1618.11 209.585 1624.11 220.82C1615.94 228.957 1605.08 241.936 1599.34 257.143C1592.22 275.934 1591.43 294.338 1591.69 304.314C1585.61 311.482 1576.23 324.946 1575.18 340.056C1573.79 361.172 1580.66 375.507 1583.7 380.737C1584.57 382.287 1585.52 383.546 1586.57 384.806C1586.22 387.421 1586.13 390.23 1586.65 393.136C1587.78 399.916 1591.61 405.437 1597.43 408.924C1608.9 415.704 1624.89 418.61 1637.23 411.733C1641.66 416.963 1649.74 422 1664.43 422H1665.29C1669.03 422 1716.48 419.191 1730.29 415.413C1736.46 413.767 1740.72 410.861 1743.5 408.246C1752.36 405.146 1776.87 395.848 1799.98 379.188C1816.32 367.371 1821.97 364.852 1834.13 361.559C1845.95 358.363 1853.34 346.352 1851.86 333.082ZM1831.18 347.32C1817.28 351.001 1810.24 354.391 1793.03 366.886C1766.18 386.258 1736.81 395.266 1736.81 395.266C1736.81 395.266 1734.38 399.335 1727.34 401.175C1715.17 404.468 1669.38 407.277 1665.21 407.374C1654 407.471 1647.13 404.178 1645.22 399.044C1639.4 383.546 1653.56 376.766 1653.56 376.766C1653.56 376.766 1650.44 374.635 1648.61 372.698C1646.96 370.858 1645.22 367.177 1644.7 368.533C1642.53 374.441 1641.4 388.874 1635.58 395.363C1627.58 404.371 1612.46 401.369 1603.51 396.138C1593.69 390.327 1604.21 376.669 1604.21 376.669C1604.21 376.669 1598.91 380.156 1594.65 372.989C1590.82 366.402 1587.26 355.166 1588.22 341.315C1589.26 325.527 1605.08 310.223 1605.08 310.223C1605.08 310.223 1602.3 286.879 1611.42 262.955C1619.67 241.161 1641.92 223.629 1641.92 223.629C1641.92 223.629 1623.24 200.577 1630.19 179.848C1634.71 166.288 1636.53 166.385 1638.01 165.804C1643.22 163.576 1648.26 161.154 1652 156.602C1670.68 134.13 1694.49 138.392 1694.49 138.392C1694.49 138.392 1705.79 100.132 1716.22 107.59C1719.43 109.915 1730.99 138.586 1730.99 138.586C1730.99 138.586 1743.33 130.546 1744.72 133.549C1752.19 149.725 1753.06 180.623 1749.76 199.414C1744.2 230.41 1730.29 247.07 1724.73 257.531C1723.43 259.952 1739.68 267.604 1749.93 299.278C1759.4 328.239 1750.97 352.551 1752.45 355.263C1752.71 355.747 1752.8 355.941 1752.8 355.941C1752.8 355.941 1763.66 356.91 1785.47 341.896C1797.12 333.857 1810.93 324.849 1826.66 324.655C1841.87 324.364 1842.65 344.221 1831.18 347.32Z" fill="white"/>
        <rect x="684" width="690" height="512" fill="#83CD29"/>
        <path d="M1016.43 94.0866C1020.25 91.9203 1024.56 91 1029 91C1033.44 91 1037.79 91.9203 1041.57 94.0866L1162.43 164.048C1170.25 168.58 1175 177.093 1175 186.168V325.833C1175 334.903 1170.25 343.392 1162.43 347.952L1041.57 417.657C1037.71 419.895 1033.47 421 1029 421C1024.59 421 1020.29 419.895 1016.43 417.657L975.886 393.737C969.871 390.359 972.879 389.284 974.859 388.592C982.896 385.798 984.507 385.232 993.077 380.362C993.97 379.859 995.233 379.818 996.156 380.362L1027.2 398.881C1028.33 399.498 1029.76 399.498 1030.8 398.881L1151.65 329.176C1152.78 328.534 1153.45 327.167 1153.45 325.833V186.168C1153.45 184.801 1152.54 183.516 1151.39 182.824L1030.8 113.12C1029.68 112.47 1028.33 112.47 1027.2 113.12L906.607 182.824C905.436 183.495 904.554 184.842 904.554 186.168V325.833C904.554 327.167 905.447 328.286 906.607 328.92L939.45 348.21C957.391 357.2 968.445 346.502 968.445 335.864V197.999C968.445 196.05 970.097 194.655 972.037 194.655H987.176C989.085 194.655 990.768 196.05 990.768 197.999V335.864C990.768 359.865 977.805 373.673 955.102 373.673L954.789 373.673C947.951 373.675 942.237 373.676 927.134 366.215L895.573 347.952C887.752 343.425 883 334.903 883 325.833V186.168C883 177.093 887.752 168.561 895.573 164.048L1016.43 94.0866Z" fill="white"/>
        <path d="M1006.42 229.895C1006.42 205.48 1026.92 190.799 1061.33 190.799C1100 190.799 1119.21 204.375 1121.63 233.239C1121.72 234.235 1121.26 235.07 1120.6 235.811C1119.94 236.504 1119 237.097 1118.04 237.097H1102.38C1100.76 237.097 1099.38 235.843 1099.05 234.268C1095.29 217.508 1086.13 212.147 1061.33 212.147C1033.57 212.147 1030.54 221.86 1030.54 229.124C1030.54 237.923 1034.11 240.356 1071.59 245.328C1108.69 250.244 1126.5 257.259 1126.5 283.395C1126.5 309.759 1104.45 324.806 1066.21 324.806C1013.38 324.806 1002.31 300.696 1002.31 280.308C1002.31 278.371 1003.98 276.707 1005.91 276.707H1021.56C1023.3 276.707 1024.62 278.086 1024.89 279.794C1027.25 295.721 1034.27 303.714 1066.21 303.714C1091.63 303.714 1102.38 297.947 1102.38 284.424C1102.38 276.627 1099.31 270.811 1059.79 266.933C1026.76 263.658 1006.42 256.381 1006.42 229.895Z" fill="white"/>
        <rect x="4" width="680" height="512" fill="#0091E2"/>
        <path d="M603.464 209.526C601.987 208.326 588.604 198.265 560.36 198.265C552.884 198.265 545.408 198.819 538.024 200.203C532.578 162.638 501.566 144.362 500.181 143.532L492.613 139.101L487.628 146.301C481.352 155.992 476.829 166.606 474.153 177.867C469.076 199.28 472.122 219.402 483.013 236.569C469.907 243.861 448.77 245.707 444.524 245.799H95.5401C86.4024 245.799 79.0185 253.183 79.0185 262.321C78.6493 292.872 83.818 323.239 94.2479 351.944C106.247 383.51 124.153 406.677 147.412 420.892C173.441 436.859 215.806 445.997 263.894 445.997C285.585 446.089 307.275 444.059 328.596 440.09C358.224 434.644 386.745 424.307 412.958 409.446C434.556 396.894 454.031 381.018 470.553 362.281C498.15 330.992 514.672 296.103 526.948 265.182H531.84C562.114 265.182 580.758 253.091 591.004 242.938C597.834 236.477 603.187 228.632 606.602 219.863L608.725 213.495L603.464 209.526ZM127.845 235.739H174.641C176.856 235.739 178.702 233.893 178.702 231.678V190.051C178.702 187.835 176.856 185.989 174.641 185.897H127.845C125.63 185.897 123.784 187.743 123.784 189.958V231.678C123.784 233.985 125.63 235.739 127.845 235.739ZM192.362 235.739H239.158C241.373 235.739 243.219 233.893 243.219 231.678V190.051C243.219 187.835 241.373 185.989 239.158 185.897H192.362C190.055 185.897 188.209 187.743 188.209 190.051V231.678C188.209 233.985 190.055 235.739 192.362 235.739ZM257.71 235.831H304.506C306.721 235.831 308.567 233.985 308.567 231.77V190.143C308.567 187.928 306.721 186.082 304.506 185.989H257.71C255.495 185.989 253.649 187.835 253.649 190.051V231.77C253.649 233.985 255.495 235.739 257.71 235.831ZM322.412 235.831H369.208C371.423 235.831 373.269 233.985 373.362 231.77V190.143C373.362 187.835 371.516 185.989 369.208 185.989H322.412C320.197 185.989 318.351 187.835 318.351 190.051V231.77C318.351 233.985 320.105 235.831 322.412 235.831ZM192.27 175.836H239.066C241.281 175.836 243.127 173.99 243.127 171.683V130.056C243.127 127.841 241.281 125.995 239.066 125.995H192.27C189.962 125.995 188.209 127.841 188.116 130.056V171.683C188.209 173.99 190.055 175.836 192.27 175.836ZM257.71 175.836H304.506C306.721 175.836 308.567 173.99 308.567 171.683V130.056C308.567 127.841 306.721 125.995 304.506 125.995H257.71C255.495 125.995 253.649 127.841 253.649 130.056V171.683C253.649 173.99 255.495 175.836 257.71 175.836ZM322.412 175.836H369.208C371.516 175.836 373.269 173.99 373.362 171.683V130.056C373.362 127.748 371.516 125.995 369.208 125.995H322.412C320.197 125.995 318.351 127.841 318.351 130.056V171.683C318.351 173.99 320.105 175.836 322.412 175.836ZM322.412 115.934H369.208C371.516 115.934 373.362 114.088 373.362 111.781V70.0612C373.362 67.846 371.516 66 369.208 66H322.412C320.197 66 318.351 67.846 318.351 70.0612V111.781C318.351 114.088 320.105 115.934 322.412 115.934ZM387.576 235.831H434.371C436.587 235.831 438.433 233.985 438.433 231.77V190.143C438.433 187.835 436.587 186.082 434.371 185.989H387.576C385.361 185.989 383.514 187.835 383.514 190.051V231.77C383.514 233.985 385.361 235.831 387.576 235.831Z" fill="white"/>
    </g>
    <defs>
        <filter id="filter0_d_24_3" x="0" y="0" width="2056" height="520" filterUnits="userSpaceOnUse" color-interpolation-filters="sRGB">
            <feFlood flood-opacity="0" result="BackgroundImageFix"/>
            <feColorMatrix in="SourceAlpha" type="matrix" values="0 0 0 0 0 0 0 0 0 0 0 0 0 0 0 0 0 0 127 0" result="hardAlpha"/>
            <feOffset dy="4"/>
            <feGaussianBlur stdDeviation="2"/>
            <feComposite in2="hardAlpha" operator="out"/>
            <feColorMatrix type="matrix" values="0 0 0 0 0 0 0 0 0 0 0 0 0 0 0 0 0 0 0.25 0"/>
            <feBlend mode="normal" in2="BackgroundImageFix" result="effect1_dropShadow_24_3"/>
            <feBlend mode="normal" in="SourceGraphic" in2="effect1_dropShadow_24_3" result="shape"/>
        </filter>
        <clipPath id="clip0_24_3">
            <rect width="2048" height="512" fill="white" transform="translate(4)"/>
        </clipPath>
    </defs>
</svg>
