<svg width="2056" height="520" viewBox="0 0 2056 520" fill="none" xmlns="http://www.w3.org/2000/svg">
    <g clip-path="url(#clip0_24_3)" filter="url(#filter0_d_24_3)">
        <g clip-path="url(#clip1_24_3)">
            <rect x="1028" width="1024.18" height="512" fill="#2C8EBB"/>
            <path d="M1677.86 332.082C1676.3 318.328 1665.87 308.835 1652.49 309.029C1632.5 309.32 1615.73 320.846 1604.61 328.498C1600.26 331.501 1596.53 333.729 1593.31 335.375C1594.01 324.139 1593.4 309.417 1588.18 293.241C1581.84 273.869 1573.32 261.955 1567.24 255.078C1574.28 243.648 1583.93 226.988 1588.44 201.223C1592.36 179.236 1591.14 145.044 1582.19 125.866C1580.36 121.991 1577.32 119.182 1573.5 118.02C1571.93 117.536 1568.98 116.567 1563.16 118.407C1554.38 98.1634 1551.34 96.0325 1548.99 94.289C1544.13 90.802 1538.39 90.0271 1533.01 92.2549C1525.79 95.1607 1519.62 102.91 1513.8 116.664C1512.93 118.698 1512.15 120.635 1511.45 122.572C1500.42 123.444 1483.04 127.9 1468.35 145.625C1466.53 147.853 1462.97 149.5 1459.23 151.049H1459.32C1451.67 154.052 1448.19 161.026 1443.94 173.618C1438.03 191.247 1444.11 208.585 1450.11 219.82C1441.94 227.957 1431.08 240.936 1425.34 256.143C1418.22 274.934 1417.43 293.338 1417.69 303.314C1411.61 310.482 1402.23 323.946 1401.18 339.056C1399.79 360.172 1406.66 374.507 1409.7 379.737C1410.57 381.287 1411.52 382.546 1412.57 383.806C1412.22 386.421 1412.13 389.23 1412.65 392.136C1413.78 398.916 1417.61 404.437 1423.43 407.924C1434.9 414.704 1450.89 417.61 1463.23 410.733C1467.66 415.963 1475.74 421 1490.43 421H1491.29C1495.03 421 1542.48 418.191 1556.29 414.413C1562.46 412.767 1566.72 409.861 1569.5 407.246C1578.36 404.146 1602.87 394.848 1625.98 378.188C1642.32 366.371 1647.97 363.852 1660.13 360.559C1671.95 357.363 1679.34 345.352 1677.86 332.082ZM1657.18 346.32C1643.28 350.001 1636.24 353.391 1619.03 365.886C1592.18 385.258 1562.81 394.266 1562.81 394.266C1562.81 394.266 1560.38 398.335 1553.34 400.175C1541.17 403.468 1495.38 406.277 1491.21 406.374C1480 406.471 1473.13 403.178 1471.22 398.044C1465.4 382.546 1479.56 375.766 1479.56 375.766C1479.56 375.766 1476.44 373.635 1474.61 371.698C1472.96 369.858 1471.22 366.177 1470.7 367.533C1468.53 373.441 1467.4 387.874 1461.58 394.363C1453.58 403.371 1438.46 400.369 1429.51 395.138C1419.69 389.327 1430.21 375.669 1430.21 375.669C1430.21 375.669 1424.91 379.156 1420.65 371.989C1416.82 365.402 1413.26 354.166 1414.22 340.315C1415.26 324.527 1431.08 309.223 1431.08 309.223C1431.08 309.223 1428.3 285.879 1437.42 261.955C1445.67 240.161 1467.92 222.629 1467.92 222.629C1467.92 222.629 1449.24 199.577 1456.19 178.848C1460.71 165.288 1462.53 165.385 1464.01 164.804C1469.22 162.576 1474.26 160.154 1478 155.602C1496.68 133.13 1520.49 137.392 1520.49 137.392C1520.49 137.392 1531.79 99.132 1542.22 106.59C1545.43 108.915 1556.99 137.586 1556.99 137.586C1556.99 137.586 1569.33 129.546 1570.72 132.549C1578.19 148.725 1579.06 179.623 1575.76 198.414C1570.2 229.41 1556.29 246.07 1550.73 256.531C1549.43 258.952 1565.68 266.604 1575.93 298.278C1585.4 327.239 1576.97 351.551 1578.45 354.263C1578.71 354.747 1578.8 354.941 1578.8 354.941C1578.8 354.941 1589.66 355.91 1611.47 340.896C1623.12 332.857 1636.93 323.849 1652.66 323.655C1667.87 323.364 1668.65 343.221 1657.18 346.32Z" fill="white"/>
        </g>
        <rect x="4" width="1024" height="512" fill="#0091E2"/>
        <path d="M775.464 208.526C773.987 207.326 760.604 197.265 732.36 197.265C724.884 197.265 717.408 197.819 710.024 199.203C704.578 161.638 673.566 143.362 672.181 142.532L664.613 138.101L659.628 145.301C653.352 154.992 648.829 165.606 646.153 176.867C641.076 198.28 644.122 218.402 655.013 235.569C641.907 242.861 620.77 244.707 616.524 244.799H267.54C258.402 244.799 251.018 252.183 251.018 261.321C250.649 291.872 255.818 322.239 266.248 350.944C278.247 382.51 296.153 405.677 319.412 419.892C345.441 435.859 387.806 444.997 435.894 444.997C457.585 445.089 479.275 443.059 500.596 439.09C530.224 433.644 558.745 423.307 584.958 408.446C606.556 395.894 626.031 380.018 642.553 361.281C670.15 329.992 686.672 295.103 698.948 264.182H703.84C734.114 264.182 752.758 252.091 763.004 241.938C769.834 235.477 775.187 227.632 778.602 218.863L780.725 212.495L775.464 208.526ZM299.845 234.739H346.641C348.856 234.739 350.702 232.893 350.702 230.678V189.051C350.702 186.835 348.856 184.989 346.641 184.897H299.845C297.63 184.897 295.784 186.743 295.784 188.958V230.678C295.784 232.985 297.63 234.739 299.845 234.739ZM364.362 234.739H411.158C413.373 234.739 415.219 232.893 415.219 230.678V189.051C415.219 186.835 413.373 184.989 411.158 184.897H364.362C362.055 184.897 360.209 186.743 360.209 189.051V230.678C360.209 232.985 362.055 234.739 364.362 234.739ZM429.71 234.831H476.506C478.721 234.831 480.567 232.985 480.567 230.77V189.143C480.567 186.928 478.721 185.082 476.506 184.989H429.71C427.495 184.989 425.649 186.835 425.649 189.051V230.77C425.649 232.985 427.495 234.739 429.71 234.831ZM494.412 234.831H541.208C543.423 234.831 545.269 232.985 545.362 230.77V189.143C545.362 186.835 543.516 184.989 541.208 184.989H494.412C492.197 184.989 490.351 186.835 490.351 189.051V230.77C490.351 232.985 492.105 234.831 494.412 234.831ZM364.27 174.836H411.066C413.281 174.836 415.127 172.99 415.127 170.683V129.056C415.127 126.841 413.281 124.995 411.066 124.995H364.27C361.962 124.995 360.209 126.841 360.116 129.056V170.683C360.209 172.99 362.055 174.836 364.27 174.836ZM429.71 174.836H476.506C478.721 174.836 480.567 172.99 480.567 170.683V129.056C480.567 126.841 478.721 124.995 476.506 124.995H429.71C427.495 124.995 425.649 126.841 425.649 129.056V170.683C425.649 172.99 427.495 174.836 429.71 174.836ZM494.412 174.836H541.208C543.516 174.836 545.269 172.99 545.362 170.683V129.056C545.362 126.748 543.516 124.995 541.208 124.995H494.412C492.197 124.995 490.351 126.841 490.351 129.056V170.683C490.351 172.99 492.105 174.836 494.412 174.836ZM494.412 114.934H541.208C543.516 114.934 545.362 113.088 545.362 110.781V69.0612C545.362 66.846 543.516 65 541.208 65H494.412C492.197 65 490.351 66.846 490.351 69.0612V110.781C490.351 113.088 492.105 114.934 494.412 114.934ZM559.576 234.831H606.371C608.587 234.831 610.433 232.985 610.433 230.77V189.143C610.433 186.835 608.587 185.082 606.371 184.989H559.576C557.361 184.989 555.514 186.835 555.514 189.051V230.77C555.514 232.985 557.361 234.831 559.576 234.831Z" fill="white"/>
    </g>
    <defs>
        <filter id="filter0_d_24_3" x="0" y="0" width="2056" height="520" filterUnits="userSpaceOnUse" color-interpolation-filters="sRGB">
            <feFlood flood-opacity="0" result="BackgroundImageFix"/>
            <feColorMatrix in="SourceAlpha" type="matrix" values="0 0 0 0 0 0 0 0 0 0 0 0 0 0 0 0 0 0 127 0" result="hardAlpha"/>
            <feOffset dy="4"/>
            <feGaussianBlur stdDeviation="2"/>
            <feComposite in2="hardAlpha" operator="out"/>
            <feColorMatrix type="matrix" values="0 0 0 0 0 0 0 0 0 0 0 0 0 0 0 0 0 0 0.25 0"/>
            <feBlend mode="normal" in2="BackgroundImageFix" result="effect1_dropShadow_24_3"/>
            <feBlend mode="normal" in="SourceGraphic" in2="effect1_dropShadow_24_3" result="shape"/>
        </filter>
        <clipPath id="clip0_24_3">
            <rect width="2048" height="512" fill="white" transform="translate(4)"/>
        </clipPath>
        <clipPath id="clip1_24_3">
            <rect width="1024" height="512" fill="white" transform="translate(1028)"/>
        </clipPath>
    </defs>
</svg>
